# xmcd
# Track frame offsets:
# 150
# 11510
# 21972
# 32517
# 41062
# 53042
# 61492
# 72402
# 78430
# 87975
# 96047
# 104702
# 113097
# 124782
# 142987
# 154637
# 168195
# 181625
#
# Disc length: 2565 seconds
# Revision: 0
# Processed by: cddbd v1.5.2PL0 Copyright (c) Steve Scherf et al.
# Submitted via: VisiTrax 2.9.5.181 - For more info visit www.synapsa.com
#
DISCID=e30a0312
DTITLE=Roger Miller - The World Of Roger Miller
DYEAR=1996
DGENRE=Country
TTITLE0=King Of The Road
TTITLE1=Engine Engine #9
TTITLE2=Kansas City Star
TTITLE3=England Swings
TTITLE4=Little Green Apples
TTITLE5=Dang Me
TTITLE6=Husbands And Wives
TTITLE7=Boeing Boeing 707
TTITLE8=Chug-A-Lug
TTITLE9=(You Had A) Do-Wacka-Do
TTITLE10=You Can't Roller Skate In A Buffalo Herd
TTITLE11=My Uncle Used To Love Me But She Died
TTITLE12=Walkin' In The Sunshine
TTITLE13=Me And Bobbie McGee
TTITLE14=By The Time I Get To Phoenix
TTITLE15=Gentle On My Mind
TTITLE16=Ruby (Don't Take Your Love To Town)
TTITLE17=Everybody's Talking
EXTD=
EXTT0=
EXTT1=
EXTT2=
EXTT3=
EXTT4=
EXTT5=
EXTT6=
EXTT7=
EXTT8=
EXTT9=
EXTT10=
EXTT11=
EXTT12=
EXTT13=
EXTT14=
EXTT15=
EXTT16=
EXTT17=
PLAYORDER=
